# xmcd
#
# Track frame offsets: 
#        150
#        18188
#        34158
#        64275
#        86020
#        114093
#        127085
#        148593
#
# Disc length: 2406 seconds
#
# Revision: 5
# Processed by: cddbd v1.5.2PL0 Copyright (c) Steve Scherf et al.
# Submitted via: ExactAudioCopy v1.0b4
#
DISCID=68096408
DTITLE=Buddy Guy - This Is Buddy Guy!
DYEAR=1968
DGENRE=Blues
TTITLE0=I Got My Eyes On You
TTITLE1=The Things I Used To Do
TTITLE2=(You Give Me) Fever
TTITLE3=Knock On Wood
TTITLE4=I Had A Dream Last Night
TTITLE5=24 Hours Of The Day
TTITLE6=You Were Wrong
TTITLE7=I'm Not The Best
EXTD=HIS FANTASTIC IN-PERSON PERFORMANCE RECORDED LIVE! With A. C. Ree
EXTD=d and Bobby Fields, tenors - Leslie Crawford, baritone - Norman Spi
EXTD=ller and George Alexander, trumpets - Tim Kaihatsu, rhythm guitar;
EXTD=Jack Meyers, bass - Glenway McTeer, drums. Arrangements by Ed Bog
EXTD=as. Produced by Sam Charters. Recorded at New Orleans House: Berk
EXTD=eley, California. VANGUARD VMD 79290.
EXTT0=
EXTT1=
EXTT2=
EXTT3=
EXTT4=
EXTT5=
EXTT6=
EXTT7=
PLAYORDER=
